<svg width="666" height="96" viewBox="0 0 666 96" fill="none" xmlns="http://www.w3.org/2000/svg">
<rect width="666" height="96" fill="#2C2C2C"/>
<path fill-rule="evenodd" clip-rule="evenodd" d="M140.238 49.5287V38.4326L111.069 49.8379H111V61.2088H111.069L140.238 72.614V61.518L125.272 55.5061L140.238 49.5287Z" fill="url(#paint0_linear)"/>
<path fill-rule="evenodd" clip-rule="evenodd" d="M299.144 72.03V60.9339L314.076 54.9565L299.144 48.979V37.883L328.278 49.2882H328.347V60.6935H328.278L299.144 72.03ZM286.643 22.2179L269.49 80H279.664L296.783 22.2179H286.643Z" fill="url(#paint1_linear)"/>
<path fill-rule="evenodd" clip-rule="evenodd" d="M183.088 36.337C185.97 39.6693 187.498 44.1008 187.324 48.6011V73.198H177.15V50.834C177.254 48.3606 176.525 45.8872 175.032 43.9634C174.338 43.1046 173.469 42.4519 172.497 42.0053C171.525 41.5587 170.448 41.3526 169.372 41.3869C163.017 41.3869 159.823 46.0246 159.823 55.3V73.198H149.648V32.7986H159.823V36.4401C161.42 34.7911 163.33 33.52 165.413 32.6956C167.497 31.8711 169.719 31.4932 171.942 31.5963C174.025 31.4932 176.074 31.8711 178.018 32.6956C179.893 33.52 181.664 34.7568 183.088 36.337Z" fill="white"/>
<path fill-rule="evenodd" clip-rule="evenodd" d="M195.277 16V73.7821H205.452V16H195.277Z" fill="white"/>
<path fill-rule="evenodd" clip-rule="evenodd" d="M259.919 71.6522H251.446L243.113 47.8454L234.709 71.6522H226.237L211.965 31.1841H222.834L230.855 55.4031L239.119 31.1841H247.071L255.336 55.4718L263.357 31.1841H274.191L259.919 71.6522Z" fill="white"/>
<path d="M360.935 35.5458H355.194V42.3031H349V46.9574H355.194V67.4361H360.935V46.9574H367.095V42.3031H360.935V35.5458Z" fill="url(#paint2_linear)"/>
<path d="M390.339 43.3029C388.112 42.2687 385.572 41.7515 382.719 41.7515C379.865 41.7515 377.325 42.2687 375.063 43.3029C372.836 44.3372 371.061 45.8541 369.739 47.8193C368.417 49.7844 367.791 52.1633 367.791 54.9213C367.791 57.7139 368.452 60.0927 369.739 62.0579C371.061 64.023 372.836 65.5055 375.063 66.5053C377.29 67.5051 379.865 68.0222 382.719 68.0222C385.572 68.0222 388.112 67.5051 390.339 66.5053C392.566 65.5055 394.306 64.023 395.628 62.0579C396.916 60.0927 397.577 57.7484 397.577 54.9213C397.577 52.1633 396.916 49.7844 395.628 47.8193C394.306 45.8541 392.566 44.3717 390.339 43.3029ZM390.513 59.5411C389.713 60.8167 388.599 61.7476 387.242 62.4026C385.885 63.0577 384.354 63.4024 382.719 63.4024C381.048 63.4024 379.517 63.0577 378.16 62.4026C376.803 61.7476 375.69 60.7822 374.889 59.5411C374.089 58.2655 373.671 56.7486 373.671 54.9213C373.671 53.0941 374.089 51.5427 374.924 50.2671C375.759 48.9915 376.873 48.0261 378.23 47.3366C379.622 46.6471 381.118 46.3368 382.753 46.3368C384.458 46.3368 385.955 46.6816 387.312 47.3366C388.669 48.0261 389.748 48.9915 390.548 50.3015C391.348 51.6116 391.766 53.1286 391.766 54.9213C391.731 56.7486 391.314 58.3 390.513 59.5411Z" fill="url(#paint3_linear)"/>
<path d="M414.071 41.8894C413.41 41.786 412.714 41.7515 412.018 41.7515C409.512 41.7515 407.285 42.1997 405.372 43.1306C403.458 44.0269 401.961 45.3025 400.848 46.9574C399.769 48.6122 399.212 50.5429 399.212 52.8183C399.212 55.0592 399.769 57.0244 400.883 58.6103C401.996 60.2306 403.493 61.4718 405.441 62.2992C406.033 62.5405 406.624 62.7474 407.251 62.9198C406.346 62.9198 405.476 62.9887 404.676 63.0921C403.284 63.299 402.17 63.7472 401.335 64.4367C400.5 65.1262 400.048 66.126 400.048 67.4361C400.048 68.1256 400.187 68.7462 400.465 69.2978C400.744 69.8839 401.161 70.3666 401.753 70.7803C402.344 71.194 403.11 71.5043 404.084 71.7456C405.058 71.9525 406.242 72.0904 407.633 72.0904H414.628C416.402 72.0904 417.759 72.4351 418.769 73.0902C419.743 73.7797 420.23 74.9174 420.23 76.5378V77.71H425.972V75.4346C425.972 73.4005 425.554 71.8146 424.684 70.6768C423.849 69.5047 422.631 68.6773 421.065 68.1946C419.499 67.7119 417.655 67.4706 415.567 67.4706H408.225C407.494 67.4706 406.903 67.3327 406.485 67.0224C406.068 66.7121 405.859 66.2984 405.859 65.8157C405.859 64.9883 406.381 64.4022 407.425 64.1264C408.469 63.8506 410 63.6782 412.053 63.6093C414.523 63.6093 416.716 63.1956 418.629 62.3337C420.543 61.5063 422.005 60.2651 423.083 58.7137C424.162 57.1278 424.684 55.2316 424.684 53.0596C424.684 51.7151 424.406 50.5084 423.884 49.4741C423.327 48.4398 422.596 47.509 421.657 46.6816C421.135 46.2334 420.613 45.8197 420.021 45.4404C420.961 45.7852 421.935 46.13 423.049 46.4402C424.719 46.9229 426.354 47.1642 427.99 47.1642V42.3721L416.02 42.3376C415.358 42.1308 414.732 41.9928 414.071 41.8894ZM418.142 49.3362C418.769 50.3016 419.047 51.4393 419.047 52.7838C419.047 54.1284 418.734 55.2661 418.142 56.2314C417.516 57.1623 416.681 57.8863 415.637 58.3689C414.558 58.8516 413.375 59.0929 412.053 59.0929C410.661 59.0929 409.443 58.8516 408.399 58.3689C407.355 57.8863 406.52 57.1623 405.894 56.2314C405.267 55.3006 404.989 54.1284 404.989 52.7838C404.989 51.4393 405.302 50.3016 405.894 49.3362C406.52 48.3709 407.355 47.6469 408.399 47.1298C409.478 46.6126 410.696 46.3713 412.053 46.3713C413.41 46.3713 414.628 46.6126 415.672 47.1298C416.681 47.6469 417.516 48.4054 418.142 49.3362Z" fill="url(#paint4_linear)"/>
<path d="M451.443 43.3374C449.39 42.2686 446.85 41.7515 443.823 41.7515C440.865 41.7515 438.255 42.3031 436.028 43.3719C433.801 44.4406 432.026 45.9921 430.739 47.9572C429.451 49.9568 428.825 52.2667 428.825 54.9213C428.825 57.6105 429.486 59.9203 430.774 61.8855C432.096 63.8506 433.871 65.3331 436.167 66.4018C438.429 67.4706 441.074 67.9877 444.031 67.9877C446.606 67.9877 448.833 67.6085 450.643 66.85C452.487 66.0915 453.949 65.0573 455.062 63.7127C456.176 62.3682 456.837 60.8512 457.115 59.1274H451.548C451.095 60.3685 450.225 61.4028 448.868 62.1958C447.511 62.9887 445.876 63.368 443.892 63.368C442.083 63.368 440.517 63.0577 439.195 62.4026C437.872 61.7476 436.828 60.8857 436.028 59.7824C435.262 58.6792 434.775 57.4036 434.601 55.9901H457.185C457.359 52.7838 456.941 50.1292 455.967 48.0261C454.993 45.9921 453.496 44.4062 451.443 43.3374ZM434.984 52.3012C435.436 50.5429 436.411 49.1294 437.872 48.0261C439.369 46.9229 441.282 46.3713 443.614 46.3713C445.841 46.3713 447.685 46.8884 449.077 47.9227C450.469 48.957 451.234 50.4395 451.408 52.3012H434.984Z" fill="url(#paint5_linear)"/>
<path d="M469.955 35.5458H464.214V42.3031H458.02V46.9574H464.214V67.4361H469.955V46.9574H476.115V42.3031H469.955V35.5458Z" fill="url(#paint6_linear)"/>
<path d="M502.908 44.1648C502.004 43.3719 500.925 42.7858 499.672 42.3721C498.42 41.9584 497.028 41.7515 495.531 41.7515C493.966 41.7515 492.539 42.0273 491.217 42.5445C489.894 43.0616 488.781 43.7511 487.841 44.6475C486.902 45.5094 486.136 46.5092 485.545 47.6469C485.231 48.2675 484.988 48.9225 484.779 49.5431V32.2017H479.037V67.4361H484.779V52.4391C485.023 51.7151 485.371 51.06 485.858 50.405C486.693 49.3362 487.737 48.4743 489.059 47.8193C490.347 47.1642 491.808 46.854 493.409 46.854C494.975 46.854 496.227 47.0953 497.167 47.5435C498.106 47.9917 498.837 48.6812 499.29 49.5776C499.742 50.4739 499.985 51.5772 499.985 52.9217V67.4016H505.762V51.0945C505.762 49.5431 505.518 48.1985 505.031 47.0263C504.509 45.9231 503.813 44.9233 502.908 44.1648Z" fill="url(#paint7_linear)"/>
<path d="M531.233 43.3374C529.18 42.2686 526.64 41.7515 523.613 41.7515C520.655 41.7515 518.045 42.3031 515.818 43.3719C513.591 44.4406 511.817 45.9921 510.529 47.9572C509.242 49.9568 508.615 52.2667 508.615 54.9213C508.615 57.6105 509.276 59.9203 510.564 61.8855C511.886 63.8506 513.661 65.3331 515.957 66.4018C518.219 67.4706 520.864 67.9877 523.822 67.9877C526.397 67.9877 528.624 67.6085 530.433 66.85C532.277 66.0915 533.739 65.0573 534.852 63.7127C535.966 62.3682 536.627 60.8512 536.905 59.1274H531.338C530.885 60.3685 530.016 61.4028 528.658 62.1958C527.301 62.9887 525.666 63.368 523.682 63.368C521.873 63.368 520.307 63.0577 518.985 62.4026C517.662 61.7476 516.619 60.8857 515.818 59.7824C515.053 58.6792 514.566 57.4036 514.392 55.9901H536.975C537.149 52.7838 536.731 50.1292 535.757 48.0261C534.818 45.9921 533.286 44.4062 531.233 43.3374ZM514.809 52.3012C515.261 50.5429 516.236 49.1294 517.697 48.0261C519.194 46.9229 521.107 46.3713 523.439 46.3713C525.666 46.3713 527.51 46.8884 528.902 47.9227C530.294 48.957 531.059 50.4395 531.233 52.3012H514.809Z" fill="url(#paint8_linear)"/>
<path d="M551.207 42.5445C550.128 43.0961 549.224 43.7856 548.493 44.6475C547.762 45.5094 547.171 46.4058 546.718 47.3021C546.301 48.1296 546.022 48.9225 545.813 49.6465V42.3031H540.037V67.4361H545.779V53.4044C546.092 52.6804 546.509 51.8875 547.066 51.129C547.867 50.0258 548.91 49.0604 550.233 48.3019C551.555 47.5435 553.121 47.1298 555 47.1298V41.717C553.573 41.7515 552.286 42.0273 551.207 42.5445Z" fill="url(#paint9_linear)"/>
<defs>
<linearGradient id="paint0_linear" x1="111" y1="47.7767" x2="559.991" y2="48.8219" gradientUnits="userSpaceOnUse">
<stop stop-color="#8257E6"/>
<stop offset="0.568204" stop-color="#4763FF"/>
<stop offset="0.939176" stop-color="#04D361"/>
</linearGradient>
<linearGradient id="paint1_linear" x1="111" y1="47.7767" x2="559.991" y2="48.8219" gradientUnits="userSpaceOnUse">
<stop stop-color="#8257E6"/>
<stop offset="0.568204" stop-color="#4763FF"/>
<stop offset="0.939176" stop-color="#04D361"/>
</linearGradient>
<linearGradient id="paint2_linear" x1="100.199" y1="55.0248" x2="555" y2="55.1368" gradientUnits="userSpaceOnUse">
<stop stop-color="#8257E6"/>
<stop offset="0.526042" stop-color="#4763FF"/>
<stop offset="1" stop-color="#04D361"/>
</linearGradient>
<linearGradient id="paint3_linear" x1="100.199" y1="55.0248" x2="555" y2="55.1368" gradientUnits="userSpaceOnUse">
<stop stop-color="#8257E6"/>
<stop offset="0.526042" stop-color="#4763FF"/>
<stop offset="1" stop-color="#04D361"/>
</linearGradient>
<linearGradient id="paint4_linear" x1="100.199" y1="55.0248" x2="555" y2="55.1368" gradientUnits="userSpaceOnUse">
<stop stop-color="#8257E6"/>
<stop offset="0.526042" stop-color="#4763FF"/>
<stop offset="1" stop-color="#04D361"/>
</linearGradient>
<linearGradient id="paint5_linear" x1="100.199" y1="55.0248" x2="555" y2="55.1368" gradientUnits="userSpaceOnUse">
<stop stop-color="#8257E6"/>
<stop offset="0.526042" stop-color="#4763FF"/>
<stop offset="1" stop-color="#04D361"/>
</linearGradient>
<linearGradient id="paint6_linear" x1="100.199" y1="55.0248" x2="555" y2="55.1368" gradientUnits="userSpaceOnUse">
<stop stop-color="#8257E6"/>
<stop offset="0.526042" stop-color="#4763FF"/>
<stop offset="1" stop-color="#04D361"/>
</linearGradient>
<linearGradient id="paint7_linear" x1="100.199" y1="55.0248" x2="555" y2="55.1368" gradientUnits="userSpaceOnUse">
<stop stop-color="#8257E6"/>
<stop offset="0.526042" stop-color="#4763FF"/>
<stop offset="1" stop-color="#04D361"/>
</linearGradient>
<linearGradient id="paint8_linear" x1="100.199" y1="55.0248" x2="555" y2="55.1368" gradientUnits="userSpaceOnUse">
<stop stop-color="#8257E6"/>
<stop offset="0.526042" stop-color="#4763FF"/>
<stop offset="1" stop-color="#04D361"/>
</linearGradient>
<linearGradient id="paint9_linear" x1="100.199" y1="55.0248" x2="555" y2="55.1368" gradientUnits="userSpaceOnUse">
<stop stop-color="#8257E6"/>
<stop offset="0.526042" stop-color="#4763FF"/>
<stop offset="1" stop-color="#04D361"/>
</linearGradient>
</defs>
</svg>
